<svg width="646" height="73" viewBox="0 0 646 73" fill="none" xmlns="http://www.w3.org/2000/svg">
<g clip-path="url(#clip0_5_485)">
<path d="M247.99 53.0949C246.71 53.2049 246.07 53.8749 246.06 55.1749C246.06 56.6049 246.02 58.0349 245.97 59.4649C245.93 60.4149 245.97 61.4849 244.81 61.8149C243.81 62.1049 243.29 61.2249 242.8 60.6149C241.31 58.7649 239.68 56.965 238.52 54.915C237.12 52.435 235.25 53.6749 233.53 53.9049C231.53 54.1749 232.69 55.805 232.6 56.755C232.41 58.765 232.54 60.805 232.54 62.825H232.43C232.43 65.205 232.45 67.595 232.43 69.975C232.41 71.465 232.72 72.5149 234.54 72.5649C236.44 72.6149 237.09 71.6749 237.07 69.9549C237.04 67.9249 237.01 65.9049 237.04 63.8749C237.04 63.2249 236.77 62.3249 237.67 62.0449C238.5 61.7949 238.96 62.5649 239.35 63.1049C241.21 65.7149 243.06 68.3449 244.83 71.0249C245.87 72.6049 247.36 72.615 248.94 72.4249C250.02 72.295 250.2 71.465 250.21 70.585C250.23 65.465 250.25 60.3349 250.21 55.2149C250.2 53.8449 249.54 52.945 247.98 53.075L247.99 53.0949Z" fill="#4BA3CF"/>
<path d="M418.01 53.4246C416.4 53.0646 414.69 53.1546 413.03 53.0446V53.1546C412.43 53.1546 411.82 53.2346 411.24 53.1446C407.98 52.6446 406.84 53.9146 407.02 57.2746C407.25 61.4246 406.88 65.6046 406.82 69.7746C406.8 70.9746 406.88 72.2946 408.5 72.4546C409.51 72.5546 410.81 72.9146 411.21 71.4946C411.46 70.6046 411.34 69.6046 411.39 68.6546C411.45 67.6046 411.22 66.3846 412.58 65.9746C413.84 65.5946 414.63 66.4746 415.26 67.3346C416.1 68.4846 416.85 69.7146 417.52 70.9746C418.55 72.9046 420.41 73.0246 421.82 72.2546C423.68 71.2346 421.86 70.0246 421.27 69.0846C419.9 66.9146 419.2 65.2946 421.57 62.9346C424.54 59.9746 422.25 54.3646 417.99 53.4246H418.01ZM414.38 62.3646C412.14 62.6746 411.4 61.5746 411.39 59.5046C411.39 57.5646 412.15 56.6646 414.12 56.7146C416.13 56.7646 418.23 57.0146 418.38 59.4346C418.53 62.0346 416.22 62.0846 414.38 62.3646Z" fill="#4BA3CF"/>
<path d="M219.64 53.1348C217.13 53.0748 217.53 54.9448 217.55 56.4048C217.59 59.2648 216.39 60.4148 213.44 60.4048C210.36 60.4048 209.06 59.2948 209.4 56.1848C209.57 54.5848 209.49 52.9848 207.11 53.1148C204.72 53.2448 205.05 54.8748 205.09 56.4448C205.14 58.4648 205.1 60.4948 205.1 62.5248C205.1 62.5248 205.1 62.5248 205.11 62.5248C205.11 65.2648 205.11 68.0048 205.11 70.7448C205.11 72.1548 205.95 72.5448 207.2 72.5448C208.41 72.5448 209.35 72.2548 209.38 70.8248C209.41 69.3948 209.38 67.9648 209.42 66.5348C209.44 65.7148 209.47 64.9448 210.5 64.5348C214.3 62.9848 217.35 64.8648 217.34 68.8348C217.34 69.3148 217.36 69.7848 217.33 70.2648C217.22 71.9648 218.09 72.5748 219.71 72.5848C221.34 72.5848 221.71 71.6948 221.73 70.3148C221.8 65.6848 221.94 61.0548 221.98 56.4148C221.99 54.8348 221.91 53.1948 219.65 53.1448L219.64 53.1348Z" fill="#4BA3CF"/>
<path d="M512.02 68.5846C510.35 68.5346 508.69 68.5346 507.02 68.5046C505.41 68.4746 504.63 67.5746 504.59 66.0246C504.53 64.1946 505.9 64.3646 507.08 64.3546C507.91 64.3546 508.75 64.4746 509.58 64.3946C511 64.2646 513.07 64.9246 513.03 62.4846C513 60.4146 511.08 60.8846 509.78 60.5746C508.02 60.1546 504.81 61.7246 504.89 58.7846C504.96 55.8046 508.21 57.1946 510.14 56.8446C511.7 56.5546 514.33 57.7846 514.28 54.9546C514.23 52.1146 511.58 53.5846 510.06 53.1746C509.95 53.1446 509.82 53.1746 509.7 53.1746C503.36 53.1613 500.187 56.3413 500.18 62.7146C500.18 69.3013 503.453 72.5779 510 72.5446C510.71 72.5446 511.43 72.5646 512.14 72.5146C513.39 72.4346 515.03 72.7746 515.04 70.7946C515.05 68.8246 513.52 68.6346 512.02 68.5846Z" fill="#4BA3CF"/>
<path d="M319.72 69.5247C317.83 64.9047 315.88 60.3147 314.07 55.6647C313.45 54.0747 312.64 52.9047 310.82 52.8747C308.84 52.8547 307.9 54.1747 307.22 55.8147C305.46 60.1047 303.63 64.3647 301.93 68.6747C301.47 69.8447 300.05 71.4447 302.03 72.3147C303.6 73.0047 305.37 72.7647 305.97 70.5547C306.23 69.5847 306.71 68.7147 307.81 68.6147C310.68 68.3447 313.87 67.1347 315.37 71.1247C315.97 72.7147 317.39 72.7347 318.66 72.2847C319.2 72.0947 320.59 72.2847 320.22 70.8447C320.06 70.4047 319.91 69.9547 319.73 69.5147L319.72 69.5247ZM312.33 64.5247C311.66 65.5947 309.68 65.0247 309.17 64.4047C307.44 62.2947 309.91 61.0447 310.33 58.2647C311.63 60.9947 313.65 62.4147 312.33 64.5247Z" fill="#4BA3CF"/>
<path d="M166.29 68.8246C164.39 68.7746 162.48 68.7946 160.6 68.5646C159.05 68.3746 158.4 67.2546 158.58 65.7246C158.77 64.1346 160.07 64.4746 161.07 64.4246C162.5 64.3446 163.94 64.4646 165.36 64.3246C166.42 64.2246 167.58 63.9646 167.61 62.5246C167.63 61.0946 166.5 60.7646 165.43 60.6546C164.01 60.5046 162.57 60.5546 161.14 60.5246C159.85 60.4946 158.67 60.2346 158.68 58.6246C158.69 56.9246 160.07 56.9346 161.25 56.8546C162.2 56.7846 163.18 56.9646 164.1 56.7946C165.86 56.4746 168.92 58.0146 168.92 54.9246C168.92 52.1546 165.95 53.2246 164.28 53.1746C154.37 52.8846 154.37 52.9446 154.35 62.8646C154.35 65.2446 154.42 67.6346 154.33 70.0146C154.25 71.8346 154.93 72.6246 156.8 72.5846C160.02 72.5046 163.24 72.5646 166.45 72.5146C167.65 72.4946 169.05 72.4946 169.07 70.8246C169.09 69.0446 167.71 68.8646 166.3 68.8246H166.29Z" fill="#4BA3CF"/>
<path d="M394.91 68.8648C392.89 68.7948 390.87 68.7548 388.85 68.5948C387.37 68.4748 386.91 67.4648 386.95 66.0848C386.99 64.6048 387.92 64.3548 389.11 64.3648C390.66 64.3748 392.21 64.4048 393.76 64.3648C394.81 64.3348 395.68 63.8348 395.81 62.7348C395.96 61.4048 395.01 60.8248 393.86 60.6248C393.16 60.5048 392.4 60.7148 391.72 60.5348C390.1 60.1248 387.2 61.7148 387.15 58.7648C387.09 55.4248 390.17 57.3048 391.84 56.7948C393.64 56.2448 397 58.2148 396.96 54.8948C396.93 52.1148 393.73 53.2348 391.93 53.1948C382.64 53.0148 382.64 53.0748 382.69 62.5048C382.69 65.0048 382.75 67.5148 382.67 70.0148C382.61 71.8348 383.31 72.6148 385.17 72.5648C388.39 72.4748 391.61 72.5048 394.83 72.5148C396.19 72.5148 397.26 72.1448 397.19 70.5648C397.13 69.1848 396.08 68.9048 394.91 68.8648Z" fill="#4BA3CF"/>
<path d="M287.39 68.1347C284.97 68.7947 282.75 68.3947 281.39 66.2147C280.16 64.2347 279.76 61.9347 281.09 59.7747C282.51 57.4747 284.69 56.7747 287.28 57.2947C287.97 57.4347 288.63 57.7747 289.31 57.9547C290.93 58.3947 292.26 57.7947 292.84 56.3247C293.45 54.7947 291.99 54.3247 290.98 53.7647C287.37 51.7547 282.22 52.4147 278.97 55.2847C276.1 57.8147 274.92 63.0347 276.37 66.8347C277.75 70.4547 281.23 72.5847 285.76 72.5347C286.36 72.5347 286.95 72.5447 287.55 72.5347C289.65 72.4747 291.57 71.9247 292.93 70.2247C293.42 69.6047 293.15 68.8747 292.63 68.2747C290.93 66.3247 289.15 67.6547 287.39 68.1347Z" fill="#4BA3CF"/>
<path d="M487.41 67.2948C486.14 67.5848 484.92 68.2048 483.64 68.3448C479.98 68.7348 477.71 66.4848 477.59 62.5348C477.48 58.8748 479.25 57.0548 483 57.1348C484.05 57.1548 485.12 57.4148 486.15 57.6648C487.75 58.0648 489.5 58.2948 490.17 56.5248C490.87 54.6548 488.95 54.2248 487.73 53.6348C483.86 51.7848 479.3 52.5548 476.14 55.5348C473.4 58.1148 472.37 63.0248 473.78 66.8548C475.07 70.3648 478.68 72.5348 483.67 72.5348C485.25 72.5948 487.28 72.5648 489.07 71.3548C489.99 70.7348 490.92 69.9848 490.37 68.7448C489.84 67.5448 488.74 66.9948 487.42 67.3048L487.41 67.2948Z" fill="#4BA3CF"/>
<path d="M191.08 67.5349C190.48 67.8849 189.77 68.1249 189.08 68.2649C185.57 68.9749 182.51 66.8649 182.01 63.4349C181.55 60.2949 184.37 57.1749 187.82 57.1449C188.86 57.1449 189.93 57.4349 190.96 57.7049C192.42 58.0849 194.08 58.3849 194.69 56.7349C195.36 54.9149 193.47 54.3949 192.29 53.7549C188.68 51.8049 183.77 52.5649 180.63 55.4449C177.93 57.9249 176.84 63.1549 178.29 66.7349C179.84 70.5749 183.15 72.5449 188.03 72.5249C189.7 72.5549 191.48 72.7149 192.9 71.7449C193.85 71.0949 196 70.9449 194.85 68.8049C193.99 67.2049 192.88 66.4849 191.09 67.5249L191.08 67.5349Z" fill="#4BA3CF"/>
<path d="M369.04 61.6547C368.11 61.1247 367.14 60.6747 366.18 60.1947C365.12 59.6547 363.72 59.1647 364.35 57.6547C364.98 56.1347 366.37 56.2647 367.7 56.8147C368.14 56.9947 368.58 57.2047 369.03 57.3047C370.37 57.6147 371.47 57.1047 372 55.9147C372.63 54.4747 371.23 54.1547 370.37 53.6347C369 52.8047 367.47 52.6147 366.13 52.7147C362.28 52.7347 359.89 54.1747 359.33 56.9847C358.66 60.3247 360.32 62.4047 363.34 63.6347C364.44 64.0847 365.49 64.6647 366.52 65.2447C367.4 65.7447 368.08 66.4647 367.67 67.5647C367.28 68.6047 366.31 68.9047 365.32 68.7647C364.15 68.5947 362.99 68.2947 361.86 67.9447C360.25 67.4347 359.19 68.2347 358.75 69.5247C358.27 70.9247 359.77 71.4747 360.63 71.6347C362.52 71.9947 364.36 72.6947 366.37 72.5747C369.18 72.4147 371.67 71.8747 372.47 68.7447C373.3 65.4847 371.78 63.2247 369.04 61.6447V61.6547Z" fill="#4BA3CF"/>
<path d="M533.4 61.2047C531.83 60.4147 528.86 60.4247 529.56 57.9147C530.32 55.1947 532.71 57.0147 534.44 57.2947C535.47 57.4547 536.38 57.2147 536.88 56.2447C537.35 55.3347 536.91 54.5047 536.14 54.1147C533.53 52.7747 530.76 52.0347 527.9 53.2247C525.79 54.1047 524.34 55.6447 524.3 58.0947C524.24 61.3947 526.34 62.8947 529.11 63.9647C530.72 64.5947 533.13 65.4047 532.43 67.4647C531.59 69.9547 529.25 68.5047 527.48 68.1147C527.25 68.0647 527.04 67.9347 526.82 67.8547C525.62 67.4047 524.68 67.7447 524.17 68.9147C523.63 70.1447 524.29 70.9347 525.32 71.5447C526.82 72.4347 528.45 72.6347 530.03 72.5147C533.41 72.6047 536.47 72.3347 537.44 68.3847C538.11 65.6247 536.41 62.7047 533.4 61.2047Z" fill="#4BA3CF"/>
<path d="M448.31 53.4248C446.6 52.7148 445.08 53.2348 444.38 55.2948C443.58 57.6648 442.65 59.9848 441.71 62.2948C441.41 63.0248 441.1 63.9648 440.03 63.8548C439.21 63.7748 438.95 62.9848 438.67 62.3548C437.65 60.0848 436.52 57.8748 435.94 55.3948C435.54 53.6748 434.11 52.5148 432.14 52.9948C430.48 53.3948 430.74 54.7848 431.17 55.9048C433.12 60.8848 435.17 65.8348 437.17 70.8048C437.69 72.0948 438.6 72.6448 440 72.5048C441.64 72.6948 442.46 71.9648 443.08 70.3348C444.8 65.7748 446.8 61.3348 448.6 56.8048C449.04 55.6948 450.09 54.1648 448.31 53.4248Z" fill="#4BA3CF"/>
<path d="M143.47 53.2048C141.45 53.1648 139.42 53.1948 137.4 53.1948C137.4 53.1648 137.4 53.1248 137.4 53.0948C135.74 53.0948 134.08 53.0248 132.42 53.1148C131.22 53.1748 129.52 52.7148 129.48 54.7448C129.45 56.5348 130.85 56.8248 132.23 56.7748C134.87 56.6748 135.41 58.1648 135.35 60.4048C135.26 63.6148 135.32 66.8348 135.3 70.0448C135.29 71.8348 136.1 72.6048 137.93 72.5448C139.77 72.4848 140.01 71.3948 139.99 69.9248C139.95 66.8348 140.06 63.7348 139.93 60.6448C139.82 58.1348 140.23 56.3948 143.35 56.7748C144.46 56.9048 145.57 56.6148 145.56 55.1148C145.56 53.7648 144.68 53.2248 143.47 53.2048Z" fill="#4BA3CF"/>
<path d="M337.71 68.4447C335 68.4347 333.76 67.5447 333.94 64.6947C334.11 61.9747 333.99 59.2247 333.98 56.4947C333.98 54.8047 334.12 52.9147 331.67 52.8947C329.21 52.8747 329.77 54.8547 329.71 56.2847C329.63 58.3047 329.69 60.3247 329.69 62.3447H329.68C329.68 62.9347 329.68 63.5347 329.68 64.1247C329.64 72.5647 329.65 72.6747 337.99 72.4547C339.74 72.4047 343.09 74.0547 343.08 70.6647C343.08 67.3747 339.73 68.4447 337.72 68.4347L337.71 68.4447Z" fill="#4BA3CF"/>
<path d="M263.15 53.1347C261.32 53.1647 261.06 54.2247 261.09 55.7147C261.14 58.0847 261.1 60.4547 261.1 62.8247C261.08 62.8247 261.06 62.8247 261.05 62.8247C261.05 65.3147 261.08 67.8047 261.05 70.2847C261.03 71.9747 261.88 72.5746 263.47 72.5546C264.97 72.5346 266.02 72.1647 266 70.3947C265.95 65.4247 265.92 60.4447 265.91 55.4747C265.91 53.5647 264.83 53.1047 263.15 53.1347Z" fill="#4BA3CF"/>
<path d="M462.94 63.1446C462.94 63.1446 462.91 63.1446 462.89 63.1446C462.89 60.4046 462.89 57.6646 462.89 54.9246C462.89 53.7246 462.55 52.8446 461.08 52.8546C459.6 52.8646 458.86 53.5046 458.84 54.9846C458.77 60.1046 458.73 65.2246 458.63 70.3446C458.6 72.0446 459.43 72.7246 461.03 72.6646C462.58 72.6046 463 71.6946 462.97 70.2846C462.91 67.9046 462.95 65.5246 462.95 63.1346L462.94 63.1446Z" fill="#4BA3CF"/>
<path d="M49.03 13.4749C48.35 6.92486 52.63 2.81486 56.2 1.45486C61.84 -0.695143 67.69 0.624856 71.46 5.02486C74.15 8.16486 74.76 11.9549 73.86 15.8049C72.11 23.2949 68.19 29.7049 63.24 35.5249C61.98 37.0049 60.98 37.1049 59.71 35.6249C55.55 30.7649 51.9 25.6049 49.84 19.4449C49.17 17.4549 48.94 15.4449 49.04 13.4649L49.03 13.4749Z" fill="#4BA3CF"/>
<path d="M121.08 0.254879C109.3 0.224879 97.51 0.254879 85.73 0.274879C83.47 0.274879 82.68 0.914879 83.52 3.54488C85.66 10.2349 86.23 16.9549 82.38 23.4449C79.03 29.0949 76.26 35.1149 72.6 40.5449C69.67 44.9049 69.06 48.4449 72.4 52.9049C75.91 57.5849 78.07 63.1749 81.56 67.9249C81.62 68.5749 81.86 69.0949 82.57 69.2749C84.39 71.3549 84.63 68.8249 85.03 68.2149C86.68 65.6749 88.04 62.9449 89.56 60.3149C100.6 41.2449 111.63 22.1649 122.74 3.13488C124.07 0.864879 123.04 0.254879 121.08 0.254879Z" fill="url(#paint0_linear_5_485)"/>
<path d="M42.25 24.3847C38.1 17.5147 38.21 10.4247 40.68 3.18474C41.48 0.844736 40.87 0.154736 38.58 0.174736C32.69 0.224736 26.8 0.194736 20.92 0.194736V0.234736C15.03 0.234736 9.13996 0.204736 3.24996 0.244736C0.16996 0.274736 -0.16004 0.854736 1.29996 3.39474C8.00996 15.0247 14.72 26.6447 21.43 38.2747C27.11 48.1147 32.77 57.9747 38.49 67.7947C39.1 68.8347 39.55 70.4947 40.95 70.3847C42.11 70.2947 42.47 68.7347 43.06 67.7247C46.29 62.1247 49.42 56.4647 52.78 50.9447C54.45 48.2047 54.55 45.7847 52.91 43.0047C49.27 36.8447 45.95 30.4947 42.25 24.3747V24.3847ZM18.76 29.6847C18.39 28.7447 18.03 27.7947 17.66 26.8547C18.03 27.8047 18.39 28.7447 18.76 29.6947C18.7 30.7347 19.26 31.4947 19.81 32.2547C19.26 31.4847 18.7 30.7247 18.76 29.6947V29.6847Z" fill="url(#paint1_linear_5_485)"/>
<path d="M463.04 3.06499C460.96 3.38499 460.47 4.91499 460.01 6.57499C458.68 11.395 457.38 16.225 455.95 21.015C455.68 21.925 455.8 23.495 454.44 23.485C453.22 23.475 452.99 22.095 452.68 21.075C451.13 15.945 449.48 10.835 448.09 5.66499C447.48 3.38499 446.03 3.05499 444.1 3.00499C442.13 2.95499 440.68 3.33499 440.09 5.59499C438.85 10.315 437.46 15.005 436.03 19.665C435.6 21.055 435.92 23.495 434.28 23.525C432.39 23.565 432.47 21.045 431.98 19.575C430.43 14.945 428.98 10.285 427.66 5.58499C426.83 2.63499 424.71 2.65499 422.58 3.30499C420.22 4.02499 421.62 5.82499 421.97 7.17499C422.42 8.89499 423.05 10.575 423.57 12.285C425.75 19.325 427.93 26.375 430.09 33.425C430.6 35.095 431.23 36.435 433.33 36.695C436.42 37.065 437.85 35.815 438.58 32.835C440.03 26.895 441.51 20.945 443.85 14.935C445.18 16.055 445.54 17.165 445.88 18.295C447.39 23.185 448.92 28.065 450.41 32.965C451.12 35.305 452.08 36.875 455.08 36.775C458.02 36.675 458.14 34.745 458.69 32.815C461.2 24.125 463.73 15.435 466.28 6.75499C467.2 3.60499 466.28 2.58499 463.03 3.08499L463.04 3.06499Z" fill="#EC843E"/>
<path d="M544.12 3.18499C539.85 2.93499 535.55 3.01499 531.27 2.88499C528.34 2.79499 527.3 4.17499 527.41 7.03499C527.57 11.315 527.45 15.605 527.45 19.895C527.5 19.895 527.56 19.895 527.61 19.895C527.61 24.655 527.65 29.425 527.59 34.185C527.56 36.675 529.16 36.685 530.94 36.675C532.73 36.675 533.51 35.915 533.5 34.075C533.47 28.255 533.5 22.435 533.55 16.625C533.64 7.51499 531.72 8.64499 541.69 8.73499C547.69 8.78499 552.3 13.465 552.57 19.345C552.82 24.735 548.2 29.685 542.35 30.265C541.4 30.355 540.39 30.215 539.52 30.505C537.32 31.235 536.3 33.155 536.43 35.205C536.56 37.245 538.64 36.655 539.9 36.625C542.02 36.575 544.19 36.355 546.25 35.835C554.54 33.745 559.1 26.335 558.12 16.815C557.41 9.95499 550.97 3.56499 544.12 3.16499V3.18499Z" fill="#EC843E"/>
<path d="M520.95 23.4347C524.97 20.0947 525.61 15.3447 523.83 10.6947C521.94 5.75468 518.19 2.87468 512.54 3.01468C509.57 3.08468 506.58 2.92468 503.61 2.75468C500.67 2.58468 499.52 3.91468 499.59 6.79468C499.69 11.2047 499.62 15.6247 499.62 20.0347C499.64 20.0347 499.66 20.0347 499.67 20.0347C499.67 24.3247 499.7 28.6247 499.66 32.9147C499.64 34.8847 499.37 36.6847 502.37 36.7647C505.41 36.8447 505.95 35.3947 505.92 32.8347C505.84 25.9147 505.91 18.9947 505.96 12.0847C505.96 10.9647 505.59 9.65468 507 8.93468C508.73 8.05468 515.33 8.91468 516.58 10.4147C518.04 12.1547 519.38 14.0647 518.31 16.5747C517.22 19.1347 515.7 21.1747 512.52 20.9847C509.84 20.8247 509.09 22.7547 508.52 24.7547C507.92 26.9047 509.74 26.9547 511.03 27.3847C512.29 27.8047 512.78 28.9547 513.44 29.9247C514.65 31.6947 515.69 33.5847 516.99 35.2847C518.57 37.3647 521.2 37.3047 522.82 36.2347C524.44 35.1647 522.72 33.3547 521.87 32.0147C521.43 31.3147 521.06 30.5347 520.52 29.9247C518.47 27.5947 518.15 25.7547 520.94 23.4347H520.95Z" fill="#EC843E"/>
<path d="M644.83 33.0047C640.73 23.8947 636.48 14.8447 632.44 5.70466C631.41 3.38466 629.79 3.06466 627.61 3.00466C625.42 2.93466 624.17 3.64466 623.23 5.72466C619.12 14.8347 614.8 23.8447 610.65 32.9247C610.16 34.0047 609.27 35.7847 610.89 36.3747C612.7 37.0347 615.43 37.5147 616.25 35.1547C617.78 30.7547 620.76 30.1747 624.22 30.9547C625.71 30.9547 626.79 31.0347 627.85 30.9347C629.18 30.8147 631.12 31.4447 631.39 29.4947C631.64 27.6647 630.74 25.9347 628.79 25.2847C627.69 24.9247 626.45 24.7547 625.29 24.8047C622.37 24.9347 621.23 24.0847 622.78 21.1447C623.72 19.3547 624.36 17.4147 625.27 15.6047C625.94 14.2647 626.31 12.0647 627.67 11.9447C629.38 11.8047 629.41 14.1447 630.15 15.4247C630.68 16.3447 631.01 17.3847 631.45 18.3547C633.87 23.7847 636.32 29.2147 638.72 34.6547C640 37.5547 642.48 36.9647 644.53 36.3447C646.31 35.8047 645.32 34.0847 644.83 32.9947V33.0047Z" fill="#EC843E"/>
<path d="M484.16 5.81461C483.16 3.50461 481.56 3.05461 479.36 3.06461C477.1 3.06461 475.7 3.75461 474.71 6.03461C470.89 14.8846 466.86 23.6346 462.85 32.3946C462.21 33.7846 460.92 35.4746 462.8 36.3546C464.5 37.1446 467.24 37.5846 468.05 35.0946C469.52 30.6146 472.62 30.2046 475.66 30.8046C477.65 30.8046 478.84 30.8346 480.03 30.8046C483.03 30.6946 483.7 29.3646 482.14 26.7846C480.83 24.6146 478.71 24.9546 476.72 24.9546C474.06 24.9546 472.79 24.2946 474.33 21.3946C475.67 18.8746 476.69 16.2046 477.89 13.6146C478.23 12.8846 478.37 11.8146 479.32 11.7446C480.52 11.6546 480.74 12.9046 481.1 13.6946C484.01 19.9546 486.83 26.2646 489.7 32.5446C490.19 33.6246 490.61 34.7946 491.35 35.6846C492.73 37.3346 494.79 37.0146 496.31 36.3046C498 35.5146 496.67 33.9846 496.19 32.9046C492.19 23.8746 488.07 14.9046 484.13 5.84461L484.16 5.81461Z" fill="#EC843E"/>
<path d="M328.27 7.06501C327.18 4.59501 326.08 2.86501 322.88 2.95501C319.73 3.04501 318.51 4.73501 317.54 7.25501C314.2 15.935 310.05 24.245 306.06 32.625C305.49 33.825 304 35.545 305.83 36.285C307.59 36.995 310.64 37.815 311.48 35.245C313.01 30.545 316.15 30.095 319.52 30.795C321.22 30.795 322.29 30.795 323.36 30.795C324.63 30.785 326.28 31.185 326.43 29.295C326.56 27.605 326.22 25.835 324.14 25.385C322.76 25.085 321.32 24.945 319.9 24.895C317.33 24.795 316.8 23.485 317.75 21.375C318.97 18.665 320.31 16.005 321.6 13.325C322.42 11.625 323.39 11.515 324.41 13.105C324.98 14.005 325.45 14.975 325.88 15.945C328.63 22.145 331.44 28.325 334.07 34.575C335.24 37.355 337.57 37.205 339.42 36.415C341.45 35.545 340.27 33.665 339.58 32.145C335.77 23.805 331.95 15.475 328.26 7.08501L328.27 7.06501Z" fill="#EC843E"/>
<path d="M152.22 6.30493C151.23 4.06493 149.99 2.97493 147.42 2.98493C144.71 2.99493 143.39 4.19493 142.36 6.56493C138.56 15.2849 134.57 23.9349 130.69 32.6249C130.13 33.8749 128.36 35.5849 130.59 36.4249C132.41 37.1149 135.4 37.6749 136.15 34.9949C137.44 30.3849 140.62 30.4249 144.17 30.8849C145.52 30.8849 146.83 30.9049 148.14 30.8849C149.19 30.8549 150.42 31.0449 150.97 29.8449C151.48 28.7349 150.74 27.7649 150.24 26.8449C148.95 24.4449 146.62 24.9349 144.53 24.9549C142.02 24.9849 140.86 24.2749 142.16 21.6049C143.51 18.8249 144.72 15.9849 146.04 13.1849C146.33 12.5749 146.5 11.6849 147.35 11.6649C148.38 11.6449 148.59 12.6349 148.92 13.3549C150.02 15.7249 151.07 18.1249 152.15 20.5149C154.3 25.2849 156.45 30.0449 158.62 34.8049C159.83 37.4649 162.18 36.9049 164.19 36.4349C166.14 35.9749 164.88 34.5249 164.49 33.6249C160.43 24.5049 156.24 15.4449 152.22 6.30493Z" fill="#EC843E"/>
<path d="M240.16 3.01481C238.05 3.22481 237.41 4.60481 236.97 6.30481C235.77 10.9148 234.56 15.5348 233.35 20.1448C233 21.4648 232.8 22.8748 231.08 23.7848C228.76 18.0648 227.24 12.3248 225.74 6.59481C225.05 3.95481 223.75 2.92481 220.97 2.95481C218.18 2.99481 217.28 4.47481 216.69 6.77481C215.22 12.4848 213.78 18.2148 211.55 24.1948C209.81 22.1048 209.19 20.1948 208.73 18.2548C207.69 13.8448 205.71 9.72481 204.83 5.24481C204.25 2.29481 201.55 2.78481 199.53 3.17481C197.09 3.64481 198.57 5.44481 198.92 6.59481C201.64 15.4848 204.47 24.3348 207.18 33.2248C207.83 35.3448 208.56 36.8048 211.22 36.8248C213.78 36.8448 214.9 35.7448 215.39 33.4448C215.68 32.0548 216.17 30.6948 216.57 29.3248C217.93 24.6848 219.3 20.0448 220.78 15.0048C222.6 16.3848 222.62 17.8148 223.03 19.0148C224.71 23.9748 226.36 28.9548 227.88 33.9748C228.51 36.0448 229.68 36.7748 231.79 36.7548C233.91 36.7348 234.95 35.9948 235.54 33.8648C238.06 24.7948 240.79 15.7848 243.4 6.73481C244.33 3.51481 243.49 2.68481 240.16 3.01481Z" fill="#EC843E"/>
<path d="M261.46 6.05504C260.6 4.10504 259.43 2.92504 257.23 2.91504C255.11 2.91504 253.09 3.16504 252.13 5.38504C249.85 10.615 247.65 15.885 245.42 21.135C244.19 22.265 243.69 23.725 243.51 25.335C243.36 25.395 243.3 25.505 243.35 25.655C241.19 27.835 240.93 30.995 239.35 33.475C237.93 35.705 238.96 36.785 241.31 36.925C244 37.085 246.06 36.395 245.92 33.105C246.6 31.255 248.01 30.705 249.87 30.755C252.49 30.835 255.11 30.775 257.73 30.835C260.47 30.905 260.73 29.545 259.78 27.435C258.55 24.715 256.15 24.725 253.71 24.845C250.98 24.985 250.27 23.815 251.43 21.375C252.76 18.585 254.08 15.785 255.36 12.975C256.19 11.145 257.07 11.135 257.94 12.895C259.16 15.345 260.33 17.815 261.47 20.305C263.7 25.165 265.84 30.065 268.11 34.915C269.25 37.345 271.58 36.985 273.41 36.375C275.4 35.715 273.9 34.045 273.49 33.095C269.55 24.055 265.44 15.085 261.47 6.04504L261.46 6.05504Z" fill="#EC843E"/>
<path d="M581.39 30.3946C578.53 30.3946 575.68 30.3946 572.82 30.3946C568.92 30.3946 566.91 28.4146 566.79 24.4546C567.46 23.1346 568.51 22.7146 569.99 22.7946C572.24 22.9246 574.51 22.9646 576.76 22.7946C578.31 22.6846 580.69 23.5546 580.62 20.5446C580.56 17.8646 579.48 16.3446 576.47 16.5846C573.75 16.8046 571.01 16.7246 568.28 16.7746C565.53 14.8546 567.04 12.1346 567.34 9.90456C567.63 7.77456 569.89 8.83456 571.27 8.78456C574.6 8.65456 577.93 8.70456 581.26 8.73456C583.37 8.75456 583.78 7.48456 583.84 5.70456C583.9 3.90456 583.23 3.05456 581.38 3.07456C575.43 3.11456 569.48 3.09456 563.52 3.10456C561.95 3.10456 561.13 3.78456 561.14 5.47456C561.18 14.9946 561.16 24.5246 561.16 34.0446C561.16 35.5346 561.62 36.6046 563.38 36.6046C569.45 36.5846 575.52 36.6246 581.59 36.5346C583.97 36.5046 583.88 34.5646 584 32.8846C584.14 30.9846 583.08 30.3646 581.38 30.3746L581.39 30.3946Z" fill="#EC843E"/>
<path d="M375.31 6.62504C374.38 4.49503 373.57 2.94504 370.82 2.96504C368.14 2.99504 366.3 3.69504 365.16 6.27504C361.26 15.085 357.23 23.825 353.32 32.625C352.8 33.805 351.44 35.635 353.18 36.335C354.95 37.045 357.9 37.885 358.79 35.195C360.26 30.745 363.23 30.125 366.79 30.895C368.45 30.895 369.76 30.875 371.07 30.895C373.82 30.935 374.37 29.825 373.31 27.315C372.05 24.345 369.58 24.795 367.25 24.825C364.69 24.855 363.63 24.155 365 21.505C366.25 19.075 367.25 16.515 368.45 14.055C368.89 13.155 369.09 11.725 370.4 11.835C371.42 11.915 371.64 13.185 372.02 14.025C375.07 20.735 378.18 27.425 381.08 34.205C382.27 36.995 384.41 37.405 386.59 36.465C389.11 35.385 387.33 33.525 386.66 32.025C382.87 23.565 379 15.135 375.31 6.62504Z" fill="#EC843E"/>
<path d="M407.22 30.3647C404.84 30.3647 402.44 30.1747 400.08 30.3947C397.13 30.6647 396.38 29.3647 396.43 26.6547C396.55 19.7547 396.4 12.8447 396.48 5.93466C396.5 3.78466 395.69 2.92466 393.54 2.99466C391.38 3.05466 390.24 3.76466 390.3 6.16466C390.41 10.6847 390.33 15.2147 390.33 19.7447C390.31 19.7447 390.28 19.7447 390.26 19.7447C390.26 24.2747 390.32 28.7947 390.23 33.3247C390.2 35.2547 390.59 36.6747 392.85 36.6747C397.62 36.6747 402.38 36.6547 407.15 36.6347C409.63 36.6347 409.47 34.6347 409.68 33.0747C409.91 31.3447 409.03 30.3647 407.22 30.3647Z" fill="#EC843E"/>
<path d="M184.11 30.3047C181.85 30.3047 179.58 30.1647 177.32 30.3247C174.54 30.5147 173.56 29.5047 173.64 26.6247C173.85 19.8447 173.66 13.0447 173.76 6.26471C173.79 4.04471 173.16 2.95471 170.75 2.99471C168.53 3.03471 167.47 3.80471 167.52 6.15471C167.61 10.6747 167.55 15.2047 167.55 19.7347C167.51 19.7347 167.46 19.7347 167.42 19.7347C167.42 24.3747 167.45 29.0147 167.4 33.6647C167.38 35.5147 168 36.6547 170.02 36.6547C174.66 36.6547 179.31 36.6047 183.95 36.6947C186.58 36.7447 186.69 34.8847 186.89 33.1147C187.11 31.1247 185.96 30.3147 184.09 30.3147L184.11 30.3047Z" fill="#EC843E"/>
<path d="M299.51 2.72483C297.19 2.69483 296.6 3.93483 297.28 5.99483C296.99 7.12483 296.98 8.25483 297.33 9.37483C296.563 14.1948 293.553 16.6182 288.3 16.6448C287.7 16.6448 287.1 16.6248 286.51 16.6848C284.09 16.9248 282.96 16.0048 283.14 13.4348C283.32 10.9448 283.11 8.42483 283.28 5.93483C283.46 3.26483 281.92 2.72483 279.76 2.62483C277.48 2.51483 276.95 3.77483 276.96 5.76483C276.99 15.0548 277.03 24.3548 276.91 33.6448C276.88 36.2948 278.08 36.8448 280.38 36.8248C283.94 36.7948 283.12 34.1448 283.2 32.2148C283.6 22.3948 283.56 22.4748 293.35 22.7248C296.18 22.7948 297.17 23.9048 296.99 26.6248C296.82 29.1148 296.93 31.6248 296.88 34.1248C296.84 36.4548 298.25 36.8048 300.16 36.7548C302.04 36.7048 303.01 36.0948 302.91 33.9948C302.42 24.5948 302.46 15.1848 302.91 5.78483C303.03 3.28483 301.48 2.75483 299.5 2.72483H299.51Z" fill="#EC843E"/>
<path d="M611.57 14.1847C613.34 11.8147 614.82 9.22467 616.32 6.66467C616.87 5.72467 618.14 4.74467 617.14 3.51467C616.32 2.51467 614.94 2.62467 613.78 2.78467C609.94 3.32467 608.95 6.57467 607.63 9.47467C606.52 10.9947 605.34 12.4647 604.31 14.0347C602.02 17.5347 601.63 17.5447 599.47 13.8547C597.73 10.8847 596.04 7.87467 594.21 4.95467C593.06 3.10467 588.28 1.87467 587.26 3.24467C585.89 5.09467 587.85 6.37467 588.69 7.78467C589.11 8.48467 589.69 9.09467 590.19 9.74467C590.83 11.0147 591.34 12.3847 592.15 13.5347C596.46 19.7247 600.74 25.8647 599.11 34.0947C598.78 35.7347 599.73 36.6547 601.59 36.7547C603.84 36.8847 605.08 36.1647 604.81 33.7947C603.95 26.1647 607.2 20.0047 611.57 14.1647V14.1847Z" fill="#EC843E"/>
</g>
<defs>
<linearGradient id="paint0_linear_5_485" x1="96.74" y1="76.3149" x2="96.74" y2="9.33488" gradientUnits="userSpaceOnUse">
<stop stop-color="#E93E3A"/>
<stop offset="1" stop-color="#EB883E"/>
</linearGradient>
<linearGradient id="paint1_linear_5_485" x1="27.27" y1="76.3147" x2="27.27" y2="9.33473" gradientUnits="userSpaceOnUse">
<stop stop-color="#E93E3A"/>
<stop offset="1" stop-color="#EC843E"/>
</linearGradient>
<clipPath id="clip0_5_485">
<rect width="645.08" height="72.65" fill="white" transform="translate(0.459961 0.174805)"/>
</clipPath>
</defs>
</svg>
